<?xml version="1.0" standalone="no"?>
<!DOCTYPE svg PUBLIC "-//W3C//DTD SVG 20010904//EN"
 "http://www.w3.org/TR/2001/REC-SVG-20010904/DTD/svg10.dtd">
<svg version="1.0" xmlns="http://www.w3.org/2000/svg"
 width="225.000000pt" height="225.000000pt" viewBox="0 0 225.000000 225.000000"
 preserveAspectRatio="xMidYMid meet">

<g transform="translate(0.000000,225.000000) scale(0.100000,-0.100000)"
fill="#1a9cb0" stroke="none">
<path d="M1065 2135 c-14 -13 -25 -36 -25 -50 0 -34 50 -85 84 -85 66 0 104
92 56 140 -29 29 -84 27 -115 -5z"/>
<path d="M820 2083 c-67 -26 -63 -127 6 -153 28 -11 71 2 90 28 47 62 -23 153
-96 125z"/>
<path d="M1352 2074 c-54 -38 -44 -121 17 -142 53 -19 95 7 107 66 5 26 1 36
-24 62 -34 33 -66 38 -100 14z"/>
<path d="M653 1807 c13 -126 93 -248 318 -482 183 -191 226 -254 254 -370 l11
-50 94 -3 c105 -3 112 1 104 58 -15 97 -51 183 -125 291 -21 32 -39 61 -39 65
0 3 43 51 95 106 52 54 115 131 141 169 70 105 114 246 83 265 -6 3 -54 -7
-106 -22 l-95 -29 -25 -50 c-34 -66 -96 -146 -178 -225 l-66 -65 -55 58 c-94
101 -155 178 -181 231 -25 51 -25 51 -106 75 -142 41 -131 43 -124 -22z"/>
<path d="M1015 1770 c-9 -14 41 -103 77 -136 23 -23 32 -26 46 -18 28 17 92
115 92 141 0 23 -2 23 -104 23 -59 0 -108 -4 -111 -10z"/>
<path d="M906 1208 c-53 -82 -108 -253 -93 -291 5 -14 22 -17 101 -17 l96 0 5
28 c3 15 12 47 21 72 33 91 31 99 -31 168 -31 34 -63 62 -71 62 -7 0 -20 -10
-28 -22z"/>
<path d="M530 431 c0 -244 -2 -259 -46 -277 -19 -8 -34 -18 -34 -23 0 -21 23
-71 33 -72 49 -5 101 21 127 64 18 29 20 52 20 270 l0 237 -50 0 -50 0 0 -199z"/>
<path d="M727 623 c-4 -3 -7 -125 -7 -270 l0 -263 55 0 55 0 0 270 0 270 -48
0 c-27 0 -52 -3 -55 -7z"/>
<path d="M928 624 c-5 -4 -8 -126 -8 -271 l0 -263 55 0 55 0 0 85 0 85 48 0
47 0 59 -85 59 -86 95 3 c92 3 96 4 103 28 4 14 28 97 54 185 61 211 53 191
69 174 13 -13 56 -150 56 -178 0 -7 -8 -11 -17 -10 -50 5 -60 -1 -71 -40 -7
-21 -12 -41 -12 -45 0 -3 30 -6 68 -6 l67 0 15 -53 15 -52 59 -3 c53 -3 58 -1
53 15 -3 10 -41 131 -84 268 l-79 250 -74 0 -74 0 -71 -225 c-39 -124 -74
-231 -76 -239 -3 -9 -22 10 -52 52 -44 64 -45 67 -26 78 56 29 78 183 39 264
-11 23 -33 48 -48 55 -30 15 -311 27 -324 14z m266 -110 c22 -21 21 -111 -1
-136 -13 -14 -31 -18 -90 -18 l-73 0 0 85 0 85 74 0 c54 0 79 -4 90 -16z"/>
</g>
</svg>
